<svg xmlns="http://www.w3.org/2000/svg" viewBox="0 0 150.38 101.02"><defs><style>.cls-1{fill:#efbb45;}</style></defs><title>Asset 1</title><g id="Layer_2" data-name="Layer 2"><g id="Object"><path class="cls-1" d="M23.06,5.16a.48.48,0,0,0,0-1,.48.48,0,0,0,0,1Z"/><path class="cls-1" d="M.43,34.2C-.52,43.31.37,52.8.54,61.94.66,68.4-1.07,80.07,8.11,80.88c3.72.33,7.51-1.67,11-2.85l12.78-4.35q6.39-2.18,12.76-4.41c4.1-1.44,8.1-2.15,10.15-6.36,1.2-2.46.85-6.06-1.94-7.4-6.21-3-13,1.05-19.11,3.19-7,2.46-13.94,5-20.91,7.45-.59.21-4.32,1-4.54,1.62q5.54,5.28,4.6,1.45c-.14-1-.27-2-.4-2.93Q11.72,60.93,11,55.57c-1-7.41-1.54-15.1-3.47-22.32C6.39,29.09.84,30.36.43,34.2Z"/><path class="cls-1" d="M12.93,71.14C18.73,51,35,35.81,52.09,24.73,63.74,17.19,93.28-.71,103,18.25c2.68,5.24,5.56,22.06-4.53,21.87-4.3-.08-4.34-5.39-4-8.64a21.21,21.21,0,0,1,5.94-12.64,20.76,20.76,0,0,1,24.76-3.35c8,4.54,11.78,14.15,13.2,22.82,3.38,20.46-6.17,39.25-21.37,52.31-5.12,4.4,1.67,13.35,7.28,9.43,20.65-14.45,30.17-42.64,24.62-66.9C146,20.83,138.81,9,126.63,4.27c-12-4.68-26.34-1.68-34.89,8.06-7.35,8.36-12.55,24.59-4.26,34.09,8.8,10.08,24,3.22,27.85-7.81,4-11.31-.47-26.69-10.12-33.83C94.54-3.1,80.29.07,69.09,5A131,131,0,0,0,29.6,32C19.07,42.51,9.6,55.3,8.11,70.49c-.28,2.82,4.08,3.24,4.82.65Z"/></g></g></svg>